<?xml version="1.0" encoding="utf-8"?>
<!-- Generator: Adobe Illustrator 26.2.1, SVG Export Plug-In . SVG Version: 6.00 Build 0)  -->
<svg version="1.1" id="Layer_1" xmlns="http://www.w3.org/2000/svg" xmlns:xlink="http://www.w3.org/1999/xlink" x="0px" y="0px"
	 viewBox="0 0 2000 2000" style="enable-background:new 0 0 2000 2000;" xml:space="preserve">
<style type="text/css">
	.st0{fill:#3875BB;}
</style>
<g>
	<path class="st0" d="M1281.93,1405h-29.67c-28.62,0-51.31-24.19-49.46-52.75c24.94-385.28-215.15-444.53-318.3-452.31
		c-25.81-1.95-45.69-23.61-45.69-49.5v-196.1c0-27.38,22.19-49.57,49.57-49.57h32.1c27.95,0,50.37,23.09,49.55,51.03l-2.14,72.61
		c-1.18,39.93,42.83,64.6,76.49,43.08c58.98-37.71,105.72-111.96,127.49-151.04c8.75-15.71,25.31-25.44,43.3-25.44l0,0
		c34.1,0,57.93,33.61,46.84,65.85c-22.43,65.19-61.09,113.53-108.16,155.31c-23.45,20.81-22.48,57.95,2.63,76.73
		c141.88,106.17,169.69,352.44,174.97,460.13C1332.84,1381.32,1310.26,1405,1281.93,1405z"/>
	<path class="st0" d="M1120.51,1405h-34.26c-27.73,0-50.16-22.75-49.56-50.47c5.19-241.27-114.56-277.09-185.07-277.4
		c-27.51-0.12-49.9,22.07-49.9,49.58v228.72c0,27.38-22.19,49.57-49.57,49.57h-33.58c-27.38,0-49.57-22.19-49.57-49.57v-701.1
		c0-27.38,22.19-49.57,49.57-49.57h33.58c27.38,0,49.57,22.19,49.57,49.57v229.72c0,26.45,20.77,48.41,47.2,49.51
		c319.14,13.3,329.38,309.3,321.04,425.35C1168.1,1384.88,1146.54,1405,1120.51,1405z"/>
</g>
</svg>
